<mxfile host="app.diagrams.net" modified="2021-01-08T06:51:38.963Z" agent="5.0 (X11; Linux x86_64) AppleWebKit/537.36 (KHTML, like Gecko) Chrome/83.0.4103.116 Safari/537.36" etag="ZUHqBZlKEYKvl-k6WuN-" version="14.1.8" type="github">
  <diagram id="iHK8WucHP5BUglWaeRnc" name="Page-1">
    <mxGraphModel dx="1422" dy="774" grid="1" gridSize="10" guides="1" tooltips="1" connect="1" arrows="1" fold="1" page="1" pageScale="1" pageWidth="827" pageHeight="1169" math="0" shadow="0">
      <root>
        <mxCell id="0" />
        <mxCell id="1" parent="0" />
        <mxCell id="RGLrYDsNPOKa8yAzFqyw-6" style="edgeStyle=orthogonalEdgeStyle;rounded=0;orthogonalLoop=1;jettySize=auto;html=1;entryX=0.5;entryY=1;entryDx=0;entryDy=0;entryPerimeter=0;" edge="1" parent="1" source="RGLrYDsNPOKa8yAzFqyw-1" target="RGLrYDsNPOKa8yAzFqyw-5">
          <mxGeometry relative="1" as="geometry" />
        </mxCell>
        <mxCell id="RGLrYDsNPOKa8yAzFqyw-1" value="Items" style="rounded=1;whiteSpace=wrap;html=1;" vertex="1" parent="1">
          <mxGeometry x="160" y="320" width="140" height="100" as="geometry" />
        </mxCell>
        <mxCell id="RGLrYDsNPOKa8yAzFqyw-2" value="GET /items&lt;br&gt;GET /items/{items_id}&lt;br&gt;GET/items/category/{category}&lt;br&gt;POST /items" style="text;html=1;align=left;verticalAlign=middle;resizable=0;points=[];autosize=1;" vertex="1" parent="1">
          <mxGeometry x="340" y="340" width="180" height="60" as="geometry" />
        </mxCell>
        <mxCell id="RGLrYDsNPOKa8yAzFqyw-8" style="edgeStyle=orthogonalEdgeStyle;rounded=0;orthogonalLoop=1;jettySize=auto;html=1;entryX=0.5;entryY=0;entryDx=0;entryDy=0;entryPerimeter=0;" edge="1" parent="1" source="RGLrYDsNPOKa8yAzFqyw-3" target="RGLrYDsNPOKa8yAzFqyw-5">
          <mxGeometry relative="1" as="geometry" />
        </mxCell>
        <mxCell id="RGLrYDsNPOKa8yAzFqyw-9" style="edgeStyle=orthogonalEdgeStyle;rounded=0;orthogonalLoop=1;jettySize=auto;html=1;" edge="1" parent="1" source="RGLrYDsNPOKa8yAzFqyw-3" target="RGLrYDsNPOKa8yAzFqyw-1">
          <mxGeometry relative="1" as="geometry" />
        </mxCell>
        <mxCell id="RGLrYDsNPOKa8yAzFqyw-3" value="Users" style="rounded=1;whiteSpace=wrap;html=1;" vertex="1" parent="1">
          <mxGeometry x="160" y="130" width="140" height="100" as="geometry" />
        </mxCell>
        <mxCell id="RGLrYDsNPOKa8yAzFqyw-4" value="GET /users/{user_id}&lt;br&gt;GET /internal/users/search&lt;br&gt;PUT /users/{users_id}&lt;br&gt;DELETE /users/{users_id}&lt;br&gt;POST /users" style="text;html=1;align=left;verticalAlign=middle;resizable=0;points=[];autosize=1;" vertex="1" parent="1">
          <mxGeometry x="340" y="140" width="160" height="80" as="geometry" />
        </mxCell>
        <mxCell id="RGLrYDsNPOKa8yAzFqyw-5" value="Mysql" style="shape=cylinder3;whiteSpace=wrap;html=1;boundedLbl=1;backgroundOutline=1;size=15;" vertex="1" parent="1">
          <mxGeometry x="20" y="260" width="60" height="80" as="geometry" />
        </mxCell>
      </root>
    </mxGraphModel>
  </diagram>
</mxfile>
